<svg width="90" height="90" viewBox="0 0 90 90" fill="none" xmlns="http://www.w3.org/2000/svg">
<path fill-rule="evenodd" clip-rule="evenodd" d="M43.9487 21.083C44.3088 20.9723 44.6912 20.9723 45.0513 21.083L69.4262 28.583C69.8096 28.7009 70.145 28.9386 70.3833 29.2612C70.6215 29.5839 70.7501 29.9744 70.75 30.3755V32.2505H72.625C75.1114 32.2505 77.496 33.2382 79.2541 34.9963C81.0123 36.7545 82 39.1391 82 41.6255V49.1255C82 51.6119 81.0123 53.9964 79.2541 55.7546C77.496 57.5127 75.1114 58.5005 72.625 58.5005H68.02C65.8657 61.8136 62.6158 64.2644 58.8381 65.4248L45.0513 69.668C44.692 69.7783 44.308 69.7783 43.9487 69.668L30.1619 65.4248C26.3842 64.2644 23.1343 61.8136 20.98 58.5005H16.375C13.8886 58.5005 11.504 57.5127 9.74587 55.7546C7.98772 53.9964 7 51.6119 7 49.1255V41.6255C7 39.1391 7.98772 36.7545 9.74587 34.9963C11.504 33.2382 13.8886 32.2505 16.375 32.2505H18.25V30.3755C18.2499 29.9744 18.3785 29.5839 18.6167 29.2612C18.855 28.9386 19.1904 28.7009 19.5738 28.583L43.9487 21.083ZM18.25 36.0005H16.375C14.8832 36.0005 13.4524 36.5931 12.3975 37.648C11.3426 38.7029 10.75 40.1336 10.75 41.6255V49.1255C10.75 50.6173 11.3426 52.048 12.3975 53.1029C13.4524 54.1578 14.8832 54.7505 16.375 54.7505H19.1538C18.5542 52.9945 18.2488 51.1516 18.25 49.2961V36.0005ZM70.75 49.2961V36.0005H72.625C74.1168 36.0005 75.5476 36.5931 76.6025 37.648C77.6574 38.7029 78.25 40.1336 78.25 41.6255V49.1255C78.25 50.6173 77.6574 52.048 76.6025 53.1029C75.5476 54.1578 74.1168 54.7505 72.625 54.7505H69.8463C70.4458 52.9945 70.7512 51.1516 70.75 49.2961ZM22 31.763V49.298C22.0001 52.1046 22.8999 54.8372 24.5673 57.0949C26.2347 59.3525 28.5819 61.0162 31.2644 61.8417L44.5 65.9161L57.7356 61.8436C60.4184 61.018 62.7658 59.354 64.4332 57.096C66.1007 54.838 67.0003 52.1049 67 49.298V31.7611L44.5 24.8367L22 31.7611V31.763ZM33.25 39.7505V36.0005H55.75V39.7505H33.25ZM33.25 51.0005H55.75V47.2505H33.25V51.0005Z" fill="#00AFDB"/>
</svg>
