<svg width="90" height="90" viewBox="0 0 90 90" fill="none" xmlns="http://www.w3.org/2000/svg">
<path d="M55.4 81.4H52.8C52.8 81.8829 52.9345 82.3562 53.1883 82.7669C53.4422 83.1776 53.8054 83.5096 54.2372 83.7255C54.6691 83.9415 55.1526 84.0329 55.6335 83.9895C56.1144 83.9461 56.5737 83.7697 56.96 83.48L55.4 81.4ZM65.8 73.6L67.36 71.52C66.91 71.1825 66.3626 71 65.8 71C65.2374 71 64.69 71.1825 64.24 71.52L65.8 73.6ZM76.2 81.4L74.64 83.48C75.0263 83.7697 75.4856 83.9461 75.9665 83.9895C76.4474 84.0329 76.9309 83.9415 77.3628 83.7255C77.7946 83.5096 78.1578 83.1776 78.4117 82.7669C78.6655 82.3562 78.8 81.8829 78.8 81.4H76.2ZM65.8 63.2C62.3522 63.2 59.0456 61.8304 56.6076 59.3924C54.1696 56.9544 52.8 53.6478 52.8 50.2H47.6C47.6 55.0269 49.5175 59.6562 52.9307 63.0693C56.3438 66.4825 60.9731 68.4 65.8 68.4V63.2ZM78.8 50.2C78.8 53.6478 77.4304 56.9544 74.9924 59.3924C72.5544 61.8304 69.2478 63.2 65.8 63.2V68.4C70.6269 68.4 75.2562 66.4825 78.6693 63.0693C82.0825 59.6562 84 55.0269 84 50.2H78.8ZM65.8 37.2C69.2478 37.2 72.5544 38.5696 74.9924 41.0076C77.4304 43.4456 78.8 46.7522 78.8 50.2H84C84 45.3731 82.0825 40.7438 78.6693 37.3307C75.2562 33.9175 70.6269 32 65.8 32V37.2ZM65.8 32C60.9731 32 56.3438 33.9175 52.9307 37.3307C49.5175 40.7438 47.6 45.3731 47.6 50.2H52.8C52.8 46.7522 54.1696 43.4456 56.6076 41.0076C59.0456 38.5696 62.3522 37.2 65.8 37.2V32ZM52.8 60.6V81.4H58V60.6H52.8ZM56.96 83.48L67.36 75.68L64.24 71.52L53.84 79.32L56.96 83.48ZM64.24 75.68L74.64 83.48L77.76 79.32L67.36 71.52L64.24 75.68ZM78.8 81.4V60.6H73.6V81.4H78.8ZM84 32V13.8H78.8V32H84ZM76.2 6H13.8V11.2H76.2V6ZM6 13.8V76.2H11.2V13.8H6ZM13.8 84H47.6V78.8H13.8V84ZM6 76.2C6 78.2687 6.82178 80.2527 8.28457 81.7154C9.74735 83.1782 11.7313 84 13.8 84V78.8C13.1104 78.8 12.4491 78.5261 11.9615 78.0385C11.4739 77.5509 11.2 76.8896 11.2 76.2H6ZM13.8 6C11.7313 6 9.74735 6.82178 8.28457 8.28457C6.82178 9.74735 6 11.7313 6 13.8H11.2C11.2 13.1104 11.4739 12.4491 11.9615 11.9615C12.4491 11.4739 13.1104 11.2 13.8 11.2V6ZM84 13.8C84 11.7313 83.1782 9.74735 81.7154 8.28457C80.2526 6.82178 78.2687 6 76.2 6V11.2C76.8896 11.2 77.5509 11.4739 78.0385 11.9615C78.5261 12.4491 78.8 13.1104 78.8 13.8H84ZM21.6 32H47.6V26.8H21.6V32ZM21.6 47.6H37.2V42.4H21.6V47.6Z" fill="#1E97EF"/>
</svg>
