<svg width="90" height="90" viewBox="0 0 90 90" fill="none" xmlns="http://www.w3.org/2000/svg">
<path d="M83.0566 36.2109H60.5566C60.1699 36.2109 59.8535 36.5273 59.8535 36.9141V41.1328C59.8535 41.5195 60.1699 41.8359 60.5566 41.8359H83.0566C83.4433 41.8359 83.7597 41.5195 83.7597 41.1328V36.9141C83.7597 36.5273 83.4433 36.2109 83.0566 36.2109ZM71.2793 48.1641H60.5566C60.1699 48.1641 59.8535 48.4805 59.8535 48.8672V53.0859C59.8535 53.4727 60.1699 53.7891 60.5566 53.7891H71.2793C71.666 53.7891 71.9824 53.4727 71.9824 53.0859V48.8672C71.9824 48.4805 71.666 48.1641 71.2793 48.1641ZM41.9502 28.3447H38.1445C37.5996 28.3447 37.1601 28.7842 37.1601 29.3291V51.126C37.1601 51.4424 37.3095 51.7324 37.5644 51.917L50.6513 61.4619C51.0908 61.7783 51.706 61.6904 52.0224 61.251L54.2812 58.166V58.1572C54.5976 57.7178 54.5009 57.1025 54.0615 56.7861L42.9257 48.7354V29.3291C42.9345 28.7842 42.4863 28.3447 41.9502 28.3447Z" fill="#1E97EF"/>
<path d="M70.7344 59.2295H65.6543C65.1622 59.2295 64.6963 59.4843 64.4327 59.9062C63.3164 61.6728 62.0157 63.3076 60.5215 64.8017C57.9463 67.3769 54.9493 69.3984 51.6182 70.8047C48.1641 72.2636 44.4991 73.0019 40.7198 73.0019C36.9317 73.0019 33.2666 72.2636 29.8213 70.8047C26.4903 69.3984 23.4932 67.3769 20.918 64.8017C18.3428 62.2265 16.3213 59.2295 14.9151 55.8984C13.4561 52.4531 12.7178 48.7881 12.7178 45C12.7178 41.2119 13.4561 37.5556 14.9151 34.1015C16.3213 30.7705 18.3428 27.7734 20.918 25.1982C23.4932 22.623 26.4903 20.6016 29.8213 19.1953C33.2666 17.7363 36.9405 16.998 40.7198 16.998C44.5079 16.998 48.1729 17.7363 51.6182 19.1953C54.9493 20.6016 57.9463 22.623 60.5215 25.1982C62.0157 26.6924 63.3164 28.3271 64.4327 30.0937C64.6963 30.5156 65.1622 30.7705 65.6543 30.7705H70.7344C71.3409 30.7705 71.7276 30.1377 71.4551 29.6015C65.7247 18.2021 54.1055 10.793 41.1329 10.6436C22.1397 10.4062 6.36332 25.9541 6.32816 44.9297C6.29301 63.9404 21.7002 79.3652 40.711 79.3652C53.8506 79.3652 65.6631 71.9297 71.4551 60.3984C71.7276 59.8623 71.3321 59.2295 70.7344 59.2295Z" fill="#1E97EF"/>
</svg>
