<svg width="90" height="90" viewBox="0 0 90 90" fill="none" xmlns="http://www.w3.org/2000/svg">
<path d="M73.125 16.875C70.0611 19.8073 66.4165 22.0646 62.4262 23.5012C58.2187 24.2437 46.575 18.8437 40.8375 24.3562C39.8813 25.3125 38.7 26.2688 37.4625 27.225C34.7625 26.0437 30.6 24.2437 27.5625 22.5C24.525 20.7562 16.875 16.875 16.875 16.875L0 36.5625C0 36.5625 4.1625 42.1875 6.75 45.9C8.4375 48.375 10.5187 52.1437 11.8687 54.675L9.95625 56.925C9.49825 57.8348 9.33347 58.8642 9.48457 59.8715C9.63566 60.8789 10.0952 61.8146 10.8 62.55C11.6135 63.1599 12.6033 63.4886 13.62 63.4866C14.6367 63.4845 15.6252 63.1519 16.4362 62.5387C16.1355 62.8909 15.9079 63.2993 15.7667 63.7403C15.6255 64.1814 15.5736 64.6461 15.6139 65.1074C15.6542 65.5687 15.786 66.0173 16.0016 66.4271C16.2171 66.837 16.5121 67.1998 16.8694 67.4944C17.7283 67.996 18.7056 68.2595 19.7003 68.2575C20.695 68.2555 21.6712 67.9882 22.5281 67.4831C21.8854 68.2842 21.5338 69.2797 21.5307 70.3067C21.5276 71.3337 21.8734 72.3314 22.5112 73.1362C23.3404 73.4233 24.2248 73.5148 25.0951 73.4035C25.9655 73.2923 26.7984 72.9814 27.5287 72.495C27.1649 73.3562 27.0707 74.3074 27.2584 75.2233C27.4462 76.1391 27.9072 76.9765 28.5806 77.625C29.5319 78.0477 30.5748 78.2219 31.6118 78.1314C32.6488 78.0409 33.6458 77.6886 34.5094 77.1075L37.4119 74.4806C40.0669 77.1244 43.7288 78.7612 47.7731 78.7612L48.1162 78.7556C49.4491 78.6418 50.7259 78.1677 51.8099 77.3839C52.8939 76.6001 53.7443 75.5363 54.27 74.3062C55.0912 74.6212 56.025 74.835 57.015 74.835C58.3425 74.835 59.5744 74.4525 60.615 73.7944C63.9056 71.6175 63.1181 69.93 63.1181 69.93C64.2882 70.4337 65.588 70.5531 66.8303 70.2711C68.0725 69.9891 69.1933 69.3201 70.0312 68.3606C70.902 67.4699 71.4511 66.3143 71.5916 65.0766C71.7322 63.8389 71.4563 62.5896 70.8075 61.5262C70.8431 61.5475 70.8843 61.5573 70.9256 61.5544C73.2938 61.5544 75.3525 60.2494 76.4269 58.3256C76.9556 56.9583 77.1342 55.4806 76.9466 54.0267C76.759 52.5728 76.211 51.1889 75.3525 50.0006L75.3694 50.0287C79.9819 49.1287 79.8131 46.8225 82.0631 43.4475C84.1935 40.6933 86.8444 38.3846 89.865 36.6525L73.125 16.875ZM72.8438 56.5875C70.3688 59.0625 68.4563 57.9937 64.2375 54.7875C60.0187 51.5812 51.6375 45.5625 51.6375 45.5625C51.9806 47.2781 52.7738 48.7687 53.8931 49.9556C55.6875 51.975 61.0312 56.5875 63.5625 58.95C65.1375 60.4125 69.1875 63.3375 66.825 65.5875C64.4625 67.8375 62.6062 65.5875 58.725 62.4375C54.8437 59.2875 46.1813 51.525 46.1813 51.525C46.1335 52.2691 46.2442 53.0148 46.506 53.713C46.7678 54.4111 47.1748 55.0458 47.7 55.575C48.6562 56.7 54 61.875 56.25 64.2375C58.5 66.6 60.4688 68.0062 58.5562 69.8625C56.6437 71.7187 52.7625 68.7937 50.625 66.6C47.3063 63.3937 40.725 57.4312 40.725 57.4312L40.7194 57.7294C40.7194 59.3269 41.2706 60.7894 42.1987 61.9481C43.8187 64.0744 46.9687 66.8306 48.8812 68.9681C50.7937 71.1056 51.9187 72.9056 48.8812 74.5931C45.8437 76.2806 41.3438 72.1181 39.375 70.0931V70.0819C39.3754 69.5263 39.1757 68.9891 38.8125 68.5687C38.1397 67.9455 37.3095 67.5176 36.4114 67.3312C35.5134 67.1449 34.5815 67.2071 33.7163 67.5112C34.0723 67.1925 34.3577 66.8028 34.5541 66.3672C34.7505 65.9316 34.8536 65.4597 34.8568 64.9818C34.86 64.504 34.7631 64.0308 34.5725 63.5926C34.3819 63.1544 34.1017 62.7609 33.75 62.4375C33.0116 61.8781 32.1104 61.5758 31.1841 61.5768C30.2577 61.5778 29.3571 61.8821 28.62 62.4431C28.9927 62.0871 29.2805 61.6517 29.4618 61.1692C29.6432 60.6867 29.7135 60.1695 29.6676 59.6561C29.6216 59.1427 29.4606 58.6463 29.1965 58.2036C28.9324 57.761 28.5719 57.3836 28.1419 57.0994C27.1349 56.4667 25.9533 56.1694 24.7668 56.2502C23.5803 56.3311 22.45 56.7859 21.5381 57.5494C22.1475 56.8108 22.448 55.8652 22.3767 54.9103C22.3054 53.9554 21.8679 53.065 21.1556 52.425C20.2703 51.601 19.1422 51.0856 17.9397 50.9558C16.7373 50.826 15.5251 51.0889 14.4844 51.705L10.7437 45.3881C8.15625 41.2819 5.11875 37.0069 5.11875 37.0069L17.9438 21.4256C17.9438 21.4256 22.5 24.2381 26.2688 26.3756C28.125 27.4444 31.3312 28.8506 33.75 29.9756C29.925 32.8444 26.7188 35.6006 27.675 37.5131C29.3791 38.7364 31.4157 39.4112 33.5131 39.4473C35.6105 39.4835 37.6691 38.8794 39.4144 37.7156C41.6522 36.228 44.2816 35.4389 46.9688 35.4487C48.9206 35.4487 50.7769 35.8537 52.4588 36.5906C55.575 38.6944 61.3125 43.8694 66.5437 47.1319C73.125 51.9131 74.4187 55.0069 72.8438 56.5819V56.5875Z" fill="#00AFDB"/>
</svg>
