<svg width="90" height="90" viewBox="0 0 90 90" fill="none" xmlns="http://www.w3.org/2000/svg">
<path d="M48.75 42.1875V18.75C48.75 13.125 52.5 7.5 60 7.5C67.5 7.5 71.25 13.125 71.25 18.75V63.75" stroke="#1E97EF" stroke-width="4"/>
<path d="M61.4063 63.75H81.0938L82.5 75H60L61.4063 63.75Z" stroke="#1E97EF" stroke-width="4" stroke-linecap="round" stroke-linejoin="round"/>
<path d="M18.75 75H48.5362C48.6544 75 48.75 74.9062 48.75 74.7862V43.6031C48.75 29.8781 37.6237 18.75 23.8969 18.75C21.04 18.75 18.3001 19.8849 16.28 21.905C14.2599 23.9251 13.125 26.665 13.125 29.5219V54.375" stroke="#1E97EF" stroke-width="4" stroke-linecap="round" stroke-linejoin="round"/>
<path d="M18.75 75C24.9632 75 30 69.9632 30 63.75C30 57.5368 24.9632 52.5 18.75 52.5C12.5368 52.5 7.5 57.5368 7.5 63.75C7.5 69.9632 12.5368 75 18.75 75Z" stroke="#1E97EF" stroke-width="4"/>
<path d="M26.25 18.75V54.375" stroke="#1E97EF" stroke-width="4" stroke-linecap="round" stroke-linejoin="round"/>
</svg>
