<svg width="90" height="90" viewBox="0 0 90 90" fill="none" xmlns="http://www.w3.org/2000/svg">
<path fill-rule="evenodd" clip-rule="evenodd" d="M22.5 13.125C22.5 12.6277 22.6975 12.1508 23.0492 11.7992C23.4008 11.4475 23.8777 11.25 24.375 11.25H65.625C66.1223 11.25 66.5992 11.4475 66.9508 11.7992C67.3025 12.1508 67.5 12.6277 67.5 13.125V15H76.875C77.3723 15 77.8492 15.1975 78.2008 15.5492C78.5525 15.9008 78.75 16.3777 78.75 16.875V28.125C78.75 30.6114 77.7623 32.996 76.0041 34.7541C74.246 36.5123 71.8614 37.5 69.375 37.5H66.2194C63.33 45.675 55.8506 51.6825 46.875 52.4231V63.75H60C60.4973 63.75 60.9742 63.9475 61.3258 64.2992C61.6775 64.6508 61.875 65.1277 61.875 65.625V76.875C61.875 77.3723 61.6775 77.8492 61.3258 78.2008C60.9742 78.5525 60.4973 78.75 60 78.75H30C29.5027 78.75 29.0258 78.5525 28.6742 78.2008C28.3225 77.8492 28.125 77.3723 28.125 76.875V65.625C28.125 65.1277 28.3225 64.6508 28.6742 64.2992C29.0258 63.9475 29.5027 63.75 30 63.75H43.125V52.4231C34.1513 51.6825 26.67 45.675 23.7806 37.5H20.625C18.1386 37.5 15.754 36.5123 13.9959 34.7541C12.2377 32.996 11.25 30.6114 11.25 28.125V16.875C11.25 16.3777 11.4475 15.9008 11.7992 15.5492C12.1508 15.1975 12.6277 15 13.125 15H22.5V13.125ZM63.75 30V15H26.25V30C26.25 40.3556 34.6444 48.75 45 48.75C55.3556 48.75 63.75 40.3556 63.75 30ZM67.5 18.75V33.75H69.375C70.8668 33.75 72.2976 33.1574 73.3525 32.1025C74.4074 31.0476 75 29.6168 75 28.125V18.75H67.5ZM15 18.75H22.5V33.75H20.625C19.1332 33.75 17.7024 33.1574 16.6475 32.1025C15.5926 31.0476 15 29.6168 15 28.125V18.75ZM31.875 67.5V75H58.125V67.5H31.875Z" fill="#00AFDB"/>
</svg>
