<svg width="11" height="11" viewBox="0 0 11 11" fill="none" xmlns="http://www.w3.org/2000/svg">
<g clip-path="url(#clip0_64_64)">
<path d="M9.77204 0.582027C9.68025 0.522453 9.57762 0.481547 9.47002 0.461646C9.36242 0.441745 9.25195 0.443239 9.14492 0.466042C9.0379 0.488846 8.93641 0.532512 8.84626 0.594546C8.75612 0.65658 8.67908 0.735767 8.61954 0.827582L3.9501 8.02508L1.67288 5.91953C1.59253 5.84524 1.49835 5.7875 1.39569 5.74962C1.29303 5.71173 1.18392 5.69443 1.07458 5.69871C0.853753 5.70736 0.645409 5.80338 0.495377 5.96564C0.345346 6.1279 0.265917 6.34311 0.274565 6.56394C0.283212 6.78476 0.379227 6.99311 0.541488 7.14314L3.53149 9.90758C3.53149 9.90758 3.61732 9.98147 3.65704 10.0073C3.74884 10.0669 3.85149 10.1079 3.95913 10.1278C4.06676 10.1477 4.17726 10.1462 4.28432 10.1234C4.39138 10.1006 4.49289 10.0569 4.58306 9.99488C4.67323 9.93282 4.75029 9.8536 4.80982 9.76175L10.0176 1.73453C10.0772 1.64274 10.1181 1.54011 10.138 1.4325C10.1579 1.3249 10.1564 1.21443 10.1336 1.10741C10.1108 1.00038 10.0671 0.898895 10.0051 0.808749C9.94305 0.718603 9.86386 0.641562 9.77204 0.582027Z" fill="#1E97EF"/>
</g>
<defs>
<clipPath id="clip0_64_64">
<rect width="10" height="10" fill="white" transform="translate(0.200073 0.200195)"/>
</clipPath>
</defs>
</svg>
