<svg width="24" height="26" viewBox="0 0 24 26" fill="none" xmlns="http://www.w3.org/2000/svg">
<g clip-path="url(#clip0_64_37)">
<path fill-rule="evenodd" clip-rule="evenodd" d="M7.40282 0.0670095C8.56605 0.0121835 8.93693 0 11.9 0C14.8631 0 15.234 0.0131988 16.3962 0.0670095C17.5585 0.12082 18.3518 0.31068 19.046 0.585825C19.7729 0.867062 20.4323 1.30668 20.9777 1.87525C21.5331 2.43265 21.9615 3.1068 22.2352 3.85203C22.5049 4.56274 22.6894 5.37497 22.7429 6.56287C22.7965 7.75584 22.8084 8.13556 22.8084 11.1682C22.8084 14.202 22.7955 14.5817 22.7429 15.7726C22.6904 16.9605 22.5049 17.7727 22.2352 18.4834C21.9615 19.2288 21.5324 19.9041 20.9777 20.4623C20.4323 21.0308 19.7729 21.4694 19.046 21.7497C18.3518 22.0258 17.5585 22.2147 16.3982 22.2695C15.234 22.3243 14.8631 22.3365 11.9 22.3365C8.93693 22.3365 8.56605 22.3233 7.40282 22.2695C6.24257 22.2157 5.44924 22.0258 4.75507 21.7497C4.02711 21.4694 3.36755 21.0301 2.82232 20.4623C2.26736 19.9045 1.8379 19.2296 1.56389 18.4845C1.29515 17.7738 1.1107 16.9615 1.05715 15.7736C1.0036 14.5807 0.991699 14.2009 0.991699 11.1682C0.991699 8.13455 1.00459 7.75483 1.05715 6.5649C1.10971 5.37497 1.29515 4.56274 1.56389 3.85203C1.83831 3.10689 2.26809 2.43195 2.82331 1.87424C3.36777 1.30618 4.02667 0.866497 4.75408 0.585825C5.44825 0.31068 6.24158 0.121835 7.40183 0.0670095H7.40282ZM16.308 2.07729C15.1577 2.02348 14.8126 2.01232 11.9 2.01232C8.98751 2.01232 8.64241 2.02348 7.49207 2.07729C6.42802 2.12704 5.85087 2.30878 5.4661 2.46209C4.95737 2.66515 4.59343 2.90578 4.21164 3.29666C3.84973 3.65715 3.5712 4.09599 3.39649 4.58101C3.24675 4.97495 3.06924 5.56585 3.02065 6.65526C2.96809 7.833 2.95718 8.18633 2.95718 11.1682C2.95718 14.1502 2.96809 14.5035 3.02065 15.6812C3.06924 16.7706 3.24675 17.3615 3.39649 17.7555C3.57102 18.2398 3.84968 18.6794 4.21164 19.0398C4.56368 19.4104 4.99307 19.6957 5.4661 19.8744C5.85087 20.0277 6.42802 20.2095 7.49207 20.2592C8.64241 20.313 8.98652 20.3242 11.9 20.3242C14.8135 20.3242 15.1577 20.313 16.308 20.2592C17.372 20.2095 17.9492 20.0277 18.334 19.8744C18.8427 19.6713 19.2066 19.4307 19.5884 19.0398C19.9504 18.6794 20.229 18.2398 20.4036 17.7555C20.5533 17.3615 20.7308 16.7706 20.7794 15.6812C20.832 14.5035 20.8429 14.1502 20.8429 11.1682C20.8429 8.18633 20.832 7.833 20.7794 6.65526C20.7308 5.56585 20.5533 4.97495 20.4036 4.58101C20.2052 4.06017 19.9702 3.68755 19.5884 3.29666C19.2363 2.92615 18.8077 2.641 18.334 2.46209C17.9492 2.30878 17.372 2.12704 16.308 2.07729ZM10.5067 14.6111C11.2849 14.9427 12.1513 14.9875 12.9581 14.7377C13.7648 14.488 14.4619 13.9592 14.9302 13.2417C15.3985 12.5242 15.6089 11.6626 15.5256 10.8039C15.4423 9.94516 15.0704 9.14271 14.4734 8.53356C14.0928 8.14417 13.6327 7.84601 13.1261 7.66055C12.6194 7.47509 12.079 7.40694 11.5435 7.46101C11.0081 7.51508 10.491 7.69003 10.0296 7.97325C9.56808 8.25647 9.17369 8.64092 8.87476 9.09892C8.57583 9.55693 8.3798 10.0771 8.30079 10.622C8.22178 11.1669 8.26176 11.7229 8.41783 12.2501C8.57391 12.7772 8.84221 13.2624 9.20341 13.6707C9.56462 14.0789 10.0097 14.4001 10.5067 14.6111ZM7.93535 7.1091C8.456 6.57604 9.0741 6.1532 9.75436 5.86471C10.4346 5.57622 11.1637 5.42774 11.9 5.42774C12.6363 5.42774 13.3654 5.57622 14.0457 5.86471C14.726 6.1532 15.3441 6.57604 15.8647 7.1091C16.3854 7.64215 16.7984 8.27498 17.0801 8.97145C17.3619 9.66792 17.5069 10.4144 17.5069 11.1682C17.5069 11.9221 17.3619 12.6686 17.0801 13.365C16.7984 14.0615 16.3854 14.6943 15.8647 15.2274C14.8132 16.304 13.3871 16.9088 11.9 16.9088C10.413 16.9088 8.98685 16.304 7.93535 15.2274C6.88385 14.1508 6.29312 12.6907 6.29312 11.1682C6.29312 9.64577 6.88385 8.18565 7.93535 7.1091ZM18.7505 6.28265C18.8795 6.15804 18.9828 6.00819 19.0542 5.84198C19.1257 5.67577 19.1638 5.49657 19.1664 5.315C19.169 5.13343 19.1359 4.95317 19.0693 4.78489C19.0026 4.61662 18.9036 4.46376 18.7782 4.33535C18.6528 4.20694 18.5035 4.10561 18.3391 4.03734C18.1748 3.96907 17.9987 3.93526 17.8213 3.93791C17.644 3.94055 17.469 3.97961 17.3066 4.05275C17.1443 4.1259 16.9979 4.23164 16.8762 4.36374C16.6395 4.62064 16.5099 4.96187 16.515 5.315C16.52 5.66813 16.6592 6.00535 16.9031 6.25507C17.1471 6.5048 17.4764 6.64737 17.8213 6.65252C18.1663 6.65767 18.4995 6.52499 18.7505 6.28265Z" fill="#1E97EF"/>
</g>
<defs>
<clipPath id="clip0_64_37">
<rect width="23.8" height="24.3671" fill="white" transform="translate(0 0.750488)"/>
</clipPath>
</defs>
</svg>
