<svg width="85" height="82" viewBox="0 0 85 82" fill="none" xmlns="http://www.w3.org/2000/svg">
<path d="M78.4424 32.992H57.1924C56.8272 32.992 56.5283 33.2803 56.5283 33.6326V37.4764C56.5283 37.8287 56.8272 38.117 57.1924 38.117H78.4424C78.8076 38.117 79.1064 37.8287 79.1064 37.4764V33.6326C79.1064 33.2803 78.8076 32.992 78.4424 32.992ZM67.3193 43.8826H57.1924C56.8272 43.8826 56.5283 44.1709 56.5283 44.5233V48.367C56.5283 48.7194 56.8272 49.0076 57.1924 49.0076H67.3193C67.6846 49.0076 67.9834 48.7194 67.9834 48.367V44.5233C67.9834 44.1709 67.6846 43.8826 67.3193 43.8826ZM39.6196 25.825H36.0254C35.5107 25.825 35.0957 26.2254 35.0957 26.7219V46.5813C35.0957 46.8695 35.2368 47.1338 35.4775 47.302L47.8374 55.9985C48.2524 56.2867 48.8335 56.2067 49.1323 55.8063L51.2656 52.9955V52.9875C51.5645 52.5871 51.4731 52.0266 51.0581 51.7383L40.541 44.4031V26.7219C40.5493 26.2254 40.126 25.825 39.6196 25.825Z" fill="#1E97EF"/>
<path d="M66.8048 53.9644H62.0069C61.5421 53.9644 61.1021 54.1967 60.8531 54.581C59.7989 56.1906 58.5704 57.6801 57.1592 59.0414C54.7271 61.3877 51.8965 63.2295 48.7505 64.5107C45.4883 65.84 42.0269 66.5127 38.4576 66.5127C34.8799 66.5127 31.4185 65.84 28.1646 64.5107C25.0186 63.2295 22.188 61.3877 19.7559 59.0414C17.3238 56.6951 15.4146 53.9644 14.0865 50.9295C12.7086 47.7904 12.0113 44.4512 12.0113 40.9998C12.0113 37.5484 12.7086 34.2172 14.0865 31.0701C15.4146 28.0351 17.3238 25.3045 19.7559 22.9582C22.188 20.6119 25.0186 18.7701 28.1646 17.4889C31.4185 16.1596 34.8882 15.4869 38.4576 15.4869C42.0352 15.4869 45.4966 16.1596 48.7505 17.4889C51.8965 18.7701 54.7271 20.6119 57.1592 22.9582C58.5704 24.3195 59.7989 25.809 60.8531 27.4185C61.1021 27.8029 61.5421 28.0352 62.0069 28.0352H66.8048C67.3775 28.0352 67.7427 27.4586 67.4854 26.9701C62.0733 16.584 51.0997 9.8334 38.8477 9.69727C20.9097 9.48106 6.00982 23.6469 5.97662 40.9357C5.94342 58.2566 20.4947 72.3103 38.4493 72.3103C50.859 72.3103 62.0152 65.5357 67.4854 55.0295C67.7427 54.541 67.3692 53.9644 66.8048 53.9644Z" fill="#1E97EF"/>
</svg>
