<svg width="82" height="82" viewBox="0 0 82 82" fill="none" xmlns="http://www.w3.org/2000/svg">
<path d="M35.24 5.99982C31.8065 6.01196 28.5172 7.38128 26.0893 9.80913C23.6615 12.237 22.2921 15.5263 22.28 18.9598C22.28 21.2638 22.9338 23.4037 23.9907 25.2613C18.8038 28.2968 14.743 32.6053 12.56 37.6798H12.2C12.0097 37.6842 11.8205 37.6499 11.6439 37.579C11.4672 37.5082 11.3067 37.4023 11.1721 37.2677C11.0375 37.1331 10.9316 36.9726 10.8608 36.796C10.79 36.6193 10.7557 36.4301 10.76 36.2398C10.76 35.7329 11.0192 35.3297 11.3907 35.0705L8.05856 30.3905C7.11494 31.0467 6.34399 31.9213 5.81142 32.9398C5.27885 33.9583 5.00047 35.0905 5 36.2398C5 39.7822 7.64384 42.6853 11.0307 43.2613C10.8838 44.2693 10.76 45.2744 10.76 46.3198C10.76 53.4968 14.5731 59.7176 20.12 64.3198C19.423 67.1998 19.7715 70.2699 22.0093 72.5105C23.6614 74.1484 25.8936 75.0674 28.22 75.0674C30.5464 75.0674 32.7786 74.1484 34.4307 72.5105L35.5107 71.4305C37.76 71.8453 40.0208 72.2398 42.44 72.2398C44.8592 72.2398 47.12 71.8453 49.3693 71.4305L50.4493 72.5105C52.1014 74.1484 54.3336 75.0674 56.66 75.0674C58.9864 75.0674 61.2186 74.1484 62.8707 72.5105C65.0624 70.316 65.3907 67.3352 64.76 64.4984C67.0695 62.6227 69.0468 60.3717 70.6093 57.8398H77V34.7998H70.4307C69.385 33.1024 68.146 31.5319 66.7386 30.1198L68.36 21.2091V17.5198H65.48C65.48 17.5198 58.5622 17.635 52.6986 22.0213C51.159 21.5771 49.5967 21.2157 48.0186 20.9384C48.1338 20.299 48.2 19.6337 48.2 18.9598C48.2 11.8376 42.3622 5.99982 35.24 5.99982ZM35.24 11.7598C39.2432 11.7598 42.44 14.9566 42.44 18.9598C42.44 19.4552 42.3507 19.9275 42.2586 20.3998C37.6131 20.4229 33.2269 21.3214 29.2122 22.8305C28.4475 21.6845 28.0396 20.3376 28.04 18.9598C28.04 14.9566 31.2368 11.7598 35.24 11.7598ZM61.88 23.8213C61.9261 23.8097 61.9261 23.8299 61.9693 23.8213L60.8893 30.3877L60.6214 31.9198L61.88 32.9998C63.803 34.6652 65.3913 36.6816 66.56 38.9413L67.3693 40.5598H71.24V52.0798H67.3693L66.56 53.7013C65.1546 56.4776 62.937 58.9198 60.08 60.9877L58.0093 62.5198L59.2707 64.8613C59.9562 66.019 59.8323 67.4475 58.8186 68.4613C58.5452 68.7463 58.217 68.9731 57.8537 69.1281C57.4904 69.283 57.0996 69.3629 56.7046 69.3629C56.3097 69.3629 55.9188 69.283 55.5556 69.1281C55.1923 68.9731 54.8641 68.7463 54.5907 68.4613L52.52 66.3877L51.3507 65.3105L49.8186 65.6705C47.48 66.2091 44.9946 66.4798 42.44 66.4798C39.9569 66.4888 37.4807 66.2174 35.0586 65.6705L33.5322 65.3105L32.36 66.3905L30.2893 68.4584C30.0159 68.7439 29.6875 68.9711 29.324 69.1263C28.9604 69.2815 28.5692 69.3615 28.1739 69.3615C27.7786 69.3615 27.3874 69.2815 27.0239 69.1263C26.6603 68.9711 26.332 68.7439 26.0586 68.4584C25.5846 67.9994 25.2816 67.3922 25.1999 66.7375C25.1182 66.0828 25.2626 65.4198 25.6093 64.8584L26.8707 62.5198L24.8 60.9905C19.5901 57.2062 16.52 52.0453 16.52 46.3198C16.52 35.5429 27.7808 26.1598 42.44 26.1598C45.9824 26.1598 49.3578 26.6897 52.4307 27.6891L53.96 28.2305L55.2214 27.1505C57.2778 25.316 59.8208 24.3281 61.88 23.8213ZM59.72 40.5598C58.136 40.5598 56.84 41.8558 56.84 43.4398C56.84 45.0238 58.136 46.3198 59.72 46.3198C61.304 46.3198 62.6 45.0238 62.6 43.4398C62.6 41.8558 61.304 40.5598 59.72 40.5598Z" fill="#1E97EF"/>
</svg>
