<svg width="74" height="67" viewBox="0 0 74 67" fill="none" xmlns="http://www.w3.org/2000/svg">
<path d="M40.4167 34.4373V13.0832C40.4167 7.95816 43.8334 2.83316 50.6667 2.83316C57.5001 2.83316 60.9168 7.95816 60.9168 13.0832V54.0832" stroke="#1E97EF" stroke-width="4"/>
<path d="M51.948 54.0832H69.8855L71.1668 64.3332H50.6667L51.948 54.0832Z" stroke="#1E97EF" stroke-width="4" stroke-linecap="round" stroke-linejoin="round"/>
<path d="M13.0834 64.3332H40.222C40.3296 64.3332 40.4167 64.2477 40.4167 64.1384V35.7271C40.4167 23.2221 30.2795 13.0832 17.7727 13.0832C15.1698 13.0832 12.6735 14.1172 10.8329 15.9577C8.99239 17.7983 7.95837 20.2946 7.95837 22.8975V45.5415" stroke="#1E97EF" stroke-width="4" stroke-linecap="round" stroke-linejoin="round"/>
<path d="M13.0834 64.3332C18.7443 64.3332 23.3334 59.7441 23.3334 54.0832C23.3334 48.4222 18.7443 43.8332 13.0834 43.8332C7.42246 43.8332 2.83337 48.4222 2.83337 54.0832C2.83337 59.7441 7.42246 64.3332 13.0834 64.3332Z" stroke="#1E97EF" stroke-width="4"/>
<path d="M19.9167 13.0832V45.5415" stroke="#1E97EF" stroke-width="4" stroke-linecap="round" stroke-linejoin="round"/>
</svg>
