<svg width="75" height="75" viewBox="0 0 75 75" fill="none" xmlns="http://www.w3.org/2000/svg">
<path d="M46.1667 67.8332H44C44 68.2355 44.112 68.63 44.3236 68.9722C44.5351 69.3145 44.8378 69.5911 45.1977 69.7711C45.5576 69.951 45.9605 70.0272 46.3612 69.9911C46.762 69.9549 47.1448 69.8079 47.4667 69.5665L46.1667 67.8332ZM54.8333 61.3332L56.1333 59.5998C55.7583 59.3185 55.3021 59.1665 54.8333 59.1665C54.3645 59.1665 53.9084 59.3185 53.5333 59.5998L54.8333 61.3332ZM63.5 67.8332L62.2 69.5665C62.5219 69.8079 62.9047 69.9549 63.3054 69.9911C63.7062 70.0272 64.1091 69.951 64.469 69.7711C64.8289 69.5911 65.1315 69.3145 65.3431 68.9722C65.5546 68.63 65.6667 68.2355 65.6667 67.8332H63.5ZM54.8333 52.6665C51.9602 52.6665 49.2047 51.5251 47.173 49.4935C45.1414 47.4618 44 44.7063 44 41.8332H39.6667C39.6667 45.8556 41.2646 49.7133 44.1089 52.5576C46.9532 55.4019 50.8109 56.9998 54.8333 56.9998V52.6665ZM65.6667 41.8332C65.6667 44.7063 64.5253 47.4618 62.4937 49.4935C60.462 51.5251 57.7065 52.6665 54.8333 52.6665V56.9998C58.8558 56.9998 62.7135 55.4019 65.5578 52.5576C68.4021 49.7133 70 45.8556 70 41.8332H65.6667ZM54.8333 30.9998C57.7065 30.9998 60.462 32.1412 62.4937 34.1728C64.5253 36.2045 65.6667 38.96 65.6667 41.8332H70C70 37.8107 68.4021 33.953 65.5578 31.1087C62.7135 28.2644 58.8558 26.6665 54.8333 26.6665V30.9998ZM54.8333 26.6665C50.8109 26.6665 46.9532 28.2644 44.1089 31.1087C41.2646 33.953 39.6667 37.8107 39.6667 41.8332H44C44 38.96 45.1414 36.2045 47.173 34.1728C49.2047 32.1412 51.9602 30.9998 54.8333 30.9998V26.6665ZM44 50.4998V67.8332H48.3333V50.4998H44ZM47.4667 69.5665L56.1333 63.0665L53.5333 59.5998L44.8667 66.0998L47.4667 69.5665ZM53.5333 63.0665L62.2 69.5665L64.8 66.0998L56.1333 59.5998L53.5333 63.0665ZM65.6667 67.8332V50.4998H61.3333V67.8332H65.6667ZM70 26.6665V11.4998H65.6667V26.6665H70ZM63.5 4.99982H11.5V9.33315H63.5V4.99982ZM5 11.4998V63.4998H9.33333V11.4998H5ZM11.5 69.9998H39.6667V65.6665H11.5V69.9998ZM5 63.4998C5 65.2237 5.68482 66.877 6.90381 68.096C8.12279 69.315 9.77609 69.9998 11.5 69.9998V65.6665C10.9254 65.6665 10.3743 65.4382 9.96794 65.0319C9.56161 64.6256 9.33333 64.0745 9.33333 63.4998H5ZM11.5 4.99982C9.77609 4.99982 8.12279 5.68464 6.90381 6.90362C5.68482 8.12261 5 9.77591 5 11.4998H9.33333C9.33333 10.9252 9.56161 10.3741 9.96794 9.96775C10.3743 9.56142 10.9254 9.33315 11.5 9.33315V4.99982ZM70 11.4998C70 9.77591 69.3152 8.12261 68.0962 6.90362C66.8772 5.68464 65.2239 4.99982 63.5 4.99982V9.33315C64.0746 9.33315 64.6257 9.56142 65.0321 9.96775C65.4384 10.3741 65.6667 10.9252 65.6667 11.4998H70ZM18 26.6665H39.6667V22.3332H18V26.6665ZM18 39.6665H31V35.3332H18V39.6665Z" fill="#1E97EF"/>
</svg>
