<svg width="35" height="35" viewBox="0 0 35 35" fill="none" xmlns="http://www.w3.org/2000/svg">
<path d="M21.9479 7.29166C23.3723 7.56957 24.6814 8.2662 25.7076 9.2924C26.7338 10.3186 27.4304 11.6277 27.7083 13.0521L21.9479 7.29166ZM21.9479 1.45833C24.9073 1.78709 27.6669 3.11233 29.7737 5.21646C31.8805 7.3206 33.2092 10.0786 33.5417 13.0375L21.9479 1.45833ZM32.0833 24.675V29.05C32.085 29.4561 32.0018 29.8582 31.8391 30.2303C31.6764 30.6024 31.4377 30.9365 31.1384 31.211C30.8392 31.4856 30.4858 31.6947 30.1011 31.8248C29.7164 31.9549 29.3087 32.0032 28.9042 31.9667C24.4166 31.4791 20.106 29.9456 16.3188 27.4896C12.7952 25.2505 9.80779 22.2632 7.56875 18.7396C5.10414 14.9351 3.57036 10.6035 3.09167 6.09583C3.05523 5.69255 3.10316 5.2861 3.2324 4.90236C3.36165 4.51862 3.56938 4.166 3.84237 3.86694C4.11536 3.56788 4.44764 3.32895 4.81803 3.16534C5.18843 3.00173 5.58883 2.91704 5.99375 2.91666H10.3688C11.0765 2.9097 11.7626 3.16032 12.2992 3.62181C12.8359 4.08331 13.1864 4.72419 13.2854 5.425C13.4701 6.82509 13.8125 8.19981 14.3063 9.52291C14.5025 10.0449 14.5449 10.6122 14.4286 11.1575C14.3123 11.7029 14.0421 12.2035 13.65 12.6L11.7979 14.4521C13.8739 18.1031 16.8969 21.1261 20.5479 23.2021L22.4 21.35C22.7965 20.9579 23.2971 20.6877 23.8425 20.5714C24.3878 20.4551 24.9551 20.4975 25.4771 20.6937C26.8002 21.1875 28.1749 21.5299 29.575 21.7146C30.2834 21.8145 30.9304 22.1713 31.3929 22.7172C31.8553 23.263 32.1011 23.9598 32.0833 24.675Z" stroke="#1E97EF" stroke-width="2" stroke-linecap="round" stroke-linejoin="round"/>
</svg>
