<svg width="29" height="26" viewBox="0 0 29 26" fill="none" xmlns="http://www.w3.org/2000/svg">
<path d="M23.531 3.00182C23.2413 3.01961 22.9568 3.07695 22.6889 3.17163H22.6853C22.428 3.25767 21.205 3.69171 19.3456 4.34962L12.6826 6.71704C7.90143 8.41512 3.20154 10.0873 3.20154 10.0873L3.25751 10.069C3.25751 10.069 2.93347 10.1589 2.59499 10.3546C2.38588 10.4668 2.20594 10.6137 2.06606 10.7863C1.89998 10.9919 1.7664 11.3064 1.81604 11.6316C1.89727 12.1814 2.3197 12.5111 2.62297 12.6931C2.92986 12.8773 3.2223 12.9634 3.2223 12.9634H3.22953L7.63697 14.216C7.83464 14.7513 8.98005 17.9282 9.25534 18.66C9.41781 19.097 9.57577 19.3704 9.77344 19.5791C9.86912 19.6857 9.98104 19.7748 10.1155 19.8463C10.1854 19.8806 10.26 19.9077 10.3376 19.927L10.2924 19.9179C10.306 19.921 10.3168 19.9301 10.3267 19.9331C10.3628 19.9415 10.3872 19.9446 10.4332 19.9507C11.131 20.1288 11.6915 19.7633 11.6915 19.7633L11.7231 19.742L14.3253 17.7431L18.6867 20.5659L18.786 20.6017C19.6949 20.9383 20.6156 20.751 21.1021 20.4205C21.5922 20.0877 21.7827 19.6621 21.7827 19.6621L21.8142 19.5935L25.1846 5.02733C25.2803 4.66792 25.3046 4.33135 25.199 4.00468C25.0901 3.67407 24.8387 3.38972 24.4941 3.20742C24.2047 3.05902 23.8692 2.98739 23.531 3.00182ZM23.4398 4.56284C23.4362 4.61081 23.4471 4.60548 23.4218 4.69762V4.70599L20.083 19.1206C20.0686 19.1412 20.0442 19.1861 19.9774 19.2311C19.907 19.2783 19.8511 19.308 19.5577 19.2097L14.2233 15.7595L11.001 18.2373L11.6779 14.5899L20.3935 7.73665C20.7528 7.45491 20.6327 7.39551 20.6327 7.39551C20.658 7.0498 20.0903 7.29424 20.0903 7.29424L9.10009 13.038L9.09648 13.0228L3.82886 11.5265V11.5234L3.81532 11.5212C3.82455 11.5186 3.8336 11.5155 3.8424 11.512L3.87128 11.4998L3.89926 11.4915C3.89926 11.4915 8.60276 9.81927 13.3839 8.12119C15.7776 7.27063 18.1894 6.41397 20.0442 5.75302C21.8991 5.09587 23.2702 4.61386 23.3478 4.58797C23.4218 4.5636 23.3866 4.5636 23.4398 4.5636V4.56284Z" fill="#1E97EF"/>
</svg>
