<svg width="32" height="32" viewBox="0 0 32 32" fill="none" xmlns="http://www.w3.org/2000/svg">
<g filter="url(#filter0_d_97_34)">
<path fill-rule="evenodd" clip-rule="evenodd" d="M21.415 14.0534C21.117 13.9078 19.656 13.2062 19.384 13.1085C19.112 13.0118 18.914 12.9639 18.715 13.2551C18.517 13.5443 17.948 14.199 17.775 14.3925C17.601 14.5869 17.428 14.6104 17.131 14.4658C16.834 14.3192 15.876 14.0134 14.741 13.0245C13.858 12.2545 13.261 11.3037 13.088 11.0125C12.915 10.7223 13.069 10.565 13.218 10.4204C13.352 10.2904 13.515 10.0813 13.664 9.91226C13.813 9.74223 13.862 9.62107 13.961 9.42661C14.061 9.23314 14.011 9.06409 13.936 8.9185C13.862 8.7729 13.268 7.34333 13.02 6.76192C12.779 6.19615 12.534 6.27335 12.352 6.26358C12.178 6.25576 11.98 6.25381 11.782 6.25381C11.584 6.25381 11.262 6.32611 10.99 6.61731C10.717 6.90752 9.94999 7.61009 9.94999 9.03966C9.94999 10.4683 11.014 11.849 11.163 12.0434C11.312 12.2369 13.258 15.1703 16.239 16.4279C16.949 16.7269 17.502 16.9057 17.933 17.0386C18.645 17.2604 19.293 17.2292 19.805 17.1539C20.375 17.0709 21.563 16.4514 21.811 15.7732C22.058 15.0951 22.058 14.5137 21.984 14.3925C21.91 14.2713 21.712 14.199 21.414 14.0534H21.415ZM15.993 21.2873H15.989C14.2184 21.2876 12.4804 20.8225 10.957 19.9408L10.597 19.7316L6.85499 20.6912L7.85399 17.1266L7.61899 16.7611C6.62913 15.2215 6.10529 13.4396 6.108 11.6213C6.11 6.29582 10.544 1.96314 15.997 1.96314C18.637 1.96314 21.119 2.9696 22.985 4.79492C23.9053 5.69056 24.6348 6.75564 25.1312 7.92854C25.6276 9.10145 25.8811 10.3589 25.877 11.6281C25.875 16.9536 21.441 21.2873 15.993 21.2873ZM24.405 3.40834C23.3032 2.32461 21.9922 1.46531 20.5481 0.880258C19.1039 0.295202 17.5553 -0.00398311 15.992 4.00413e-05C9.43799 4.00413e-05 4.102 5.21314 4.1 11.6203C4.099 13.6684 4.646 15.6677 5.687 17.4295L4 23.4517L10.304 21.8355C12.0479 22.7639 14.0021 23.2503 15.988 23.2504H15.993C22.547 23.2504 27.883 18.0373 27.885 11.6291C27.8898 10.1021 27.5847 8.58929 26.9874 7.17822C26.3901 5.76715 25.5123 4.48582 24.405 3.40834Z" fill="#1E97EF"/>
</g>
<defs>
<filter id="filter0_d_97_34" x="0" y="0" width="31.885" height="31.4517" filterUnits="userSpaceOnUse" color-interpolation-filters="sRGB">
<feFlood flood-opacity="0" result="BackgroundImageFix"/>
<feColorMatrix in="SourceAlpha" type="matrix" values="0 0 0 0 0 0 0 0 0 0 0 0 0 0 0 0 0 0 127 0" result="hardAlpha"/>
<feOffset dy="4"/>
<feGaussianBlur stdDeviation="2"/>
<feComposite in2="hardAlpha" operator="out"/>
<feColorMatrix type="matrix" values="0 0 0 0 0 0 0 0 0 0 0 0 0 0 0 0 0 0 0.25 0"/>
<feBlend mode="normal" in2="BackgroundImageFix" result="effect1_dropShadow_97_34"/>
<feBlend mode="normal" in="SourceGraphic" in2="effect1_dropShadow_97_34" result="shape"/>
</filter>
</defs>
</svg>
