<svg width="74" height="67" viewBox="0 0 74 67" fill="none" xmlns="http://www.w3.org/2000/svg">
<path d="M40.4165 34.4375V13.0834C40.4165 7.95837 43.8332 2.83337 50.6665 2.83337C57.4998 2.83337 60.9165 7.95837 60.9165 13.0834V54.0834" stroke="#1E97EF" stroke-width="5"/>
<path d="M51.9478 54.0834H69.8853L71.1665 64.3334H50.6665L51.9478 54.0834Z" stroke="#1E97EF" stroke-width="5" stroke-linecap="round" stroke-linejoin="round"/>
<path d="M13.0833 64.3334H40.2218C40.3295 64.3334 40.4166 64.248 40.4166 64.1386V35.7273C40.4166 23.2223 30.2793 13.0834 17.7726 13.0834C15.1697 13.0834 12.6734 14.1174 10.8328 15.9579C8.99226 17.7985 7.95825 20.2948 7.95825 22.8977V45.5417" stroke="#1E97EF" stroke-width="5" stroke-linecap="round" stroke-linejoin="round"/>
<path d="M13.0833 64.3334C18.7442 64.3334 23.3333 59.7443 23.3333 54.0834C23.3333 48.4225 18.7442 43.8334 13.0833 43.8334C7.42233 43.8334 2.83325 48.4225 2.83325 54.0834C2.83325 59.7443 7.42233 64.3334 13.0833 64.3334Z" stroke="#1E97EF" stroke-width="5"/>
<path d="M19.9165 13.0834V45.5417" stroke="#1E97EF" stroke-width="5" stroke-linecap="round" stroke-linejoin="round"/>
</svg>
