<svg width="75" height="75" viewBox="0 0 75 75" fill="none" xmlns="http://www.w3.org/2000/svg">
<path d="M46.1667 67.8333H44C44 68.2357 44.112 68.6301 44.3236 68.9724C44.5351 69.3147 44.8378 69.5913 45.1977 69.7713C45.5576 69.9512 45.9605 70.0274 46.3612 69.9912C46.762 69.9551 47.1448 69.8081 47.4667 69.5667L46.1667 67.8333ZM54.8333 61.3333L56.1333 59.6C55.7583 59.3187 55.3021 59.1667 54.8333 59.1667C54.3645 59.1667 53.9084 59.3187 53.5333 59.6L54.8333 61.3333ZM63.5 67.8333L62.2 69.5667C62.5219 69.8081 62.9047 69.9551 63.3054 69.9912C63.7062 70.0274 64.1091 69.9512 64.469 69.7713C64.8289 69.5913 65.1315 69.3147 65.3431 68.9724C65.5546 68.6301 65.6667 68.2357 65.6667 67.8333H63.5ZM54.8333 52.6667C51.9602 52.6667 49.2047 51.5253 47.173 49.4937C45.1414 47.462 44 44.7065 44 41.8333H39.6667C39.6667 45.8558 41.2646 49.7135 44.1089 52.5578C46.9532 55.4021 50.8109 57 54.8333 57V52.6667ZM65.6667 41.8333C65.6667 44.7065 64.5253 47.462 62.4937 49.4937C60.462 51.5253 57.7065 52.6667 54.8333 52.6667V57C58.8558 57 62.7135 55.4021 65.5578 52.5578C68.4021 49.7135 70 45.8558 70 41.8333H65.6667ZM54.8333 31C57.7065 31 60.462 32.1414 62.4937 34.173C64.5253 36.2047 65.6667 38.9602 65.6667 41.8333H70C70 37.8109 68.4021 33.9532 65.5578 31.1089C62.7135 28.2646 58.8558 26.6667 54.8333 26.6667V31ZM54.8333 26.6667C50.8109 26.6667 46.9532 28.2646 44.1089 31.1089C41.2646 33.9532 39.6667 37.8109 39.6667 41.8333H44C44 38.9602 45.1414 36.2047 47.173 34.173C49.2047 32.1414 51.9602 31 54.8333 31V26.6667ZM44 50.5V67.8333H48.3333V50.5H44ZM47.4667 69.5667L56.1333 63.0667L53.5333 59.6L44.8667 66.1L47.4667 69.5667ZM53.5333 63.0667L62.2 69.5667L64.8 66.1L56.1333 59.6L53.5333 63.0667ZM65.6667 67.8333V50.5H61.3333V67.8333H65.6667ZM70 26.6667V11.5H65.6667V26.6667H70ZM63.5 5H11.5V9.33333H63.5V5ZM5 11.5V63.5H9.33333V11.5H5ZM11.5 70H39.6667V65.6667H11.5V70ZM5 63.5C5 65.2239 5.68482 66.8772 6.90381 68.0962C8.12279 69.3152 9.77609 70 11.5 70V65.6667C10.9254 65.6667 10.3743 65.4384 9.96794 65.0321C9.56161 64.6257 9.33333 64.0746 9.33333 63.5H5ZM11.5 5C9.77609 5 8.12279 5.68482 6.90381 6.90381C5.68482 8.12279 5 9.77609 5 11.5H9.33333C9.33333 10.9254 9.56161 10.3743 9.96794 9.96794C10.3743 9.56161 10.9254 9.33333 11.5 9.33333V5ZM70 11.5C70 9.77609 69.3152 8.12279 68.0962 6.90381C66.8772 5.68482 65.2239 5 63.5 5V9.33333C64.0746 9.33333 64.6257 9.56161 65.0321 9.96794C65.4384 10.3743 65.6667 10.9254 65.6667 11.5H70ZM18 26.6667H39.6667V22.3333H18V26.6667ZM18 39.6667H31V35.3333H18V39.6667Z" fill="#1E97EF"/>
</svg>
