<svg width="82" height="82" viewBox="0 0 82 82" fill="none" xmlns="http://www.w3.org/2000/svg">
<path d="M35.24 6C31.8065 6.01214 28.5172 7.38147 26.0893 9.80931C23.6615 12.2372 22.2921 15.5265 22.28 18.96C22.28 21.264 22.9338 23.4038 23.9907 25.2614C18.8038 28.297 14.743 32.6054 12.56 37.68H12.2C12.0097 37.6843 11.8205 37.65 11.6439 37.5792C11.4672 37.5084 11.3067 37.4025 11.1721 37.2679C11.0375 37.1333 10.9316 36.9728 10.8608 36.7962C10.79 36.6195 10.7557 36.4303 10.76 36.24C10.76 35.7331 11.0192 35.3299 11.3907 35.0707L8.05856 30.3907C7.11494 31.0469 6.34399 31.9215 5.81142 32.94C5.27885 33.9585 5.00047 35.0907 5 36.24C5 39.7824 7.64384 42.6854 11.0307 43.2614C10.8838 44.2694 10.76 45.2746 10.76 46.32C10.76 53.497 14.5731 59.7178 20.12 64.32C19.423 67.2 19.7715 70.2701 22.0093 72.5107C23.6614 74.1486 25.8936 75.0676 28.22 75.0676C30.5464 75.0676 32.7786 74.1486 34.4307 72.5107L35.5107 71.4307C37.76 71.8455 40.0208 72.24 42.44 72.24C44.8592 72.24 47.12 71.8455 49.3693 71.4307L50.4493 72.5107C52.1014 74.1486 54.3336 75.0676 56.66 75.0676C58.9864 75.0676 61.2186 74.1486 62.8707 72.5107C65.0624 70.3162 65.3907 67.3354 64.76 64.4986C67.0695 62.6229 69.0468 60.3719 70.6093 57.84H77V34.8H70.4307C69.385 33.1026 68.146 31.5321 66.7386 30.12L68.36 21.2093V17.52H65.48C65.48 17.52 58.5622 17.6352 52.6986 22.0214C51.159 21.5773 49.5967 21.2159 48.0186 20.9386C48.1338 20.2992 48.2 19.6339 48.2 18.96C48.2 11.8378 42.3622 6 35.24 6ZM35.24 11.76C39.2432 11.76 42.44 14.9568 42.44 18.96C42.44 19.4554 42.3507 19.9277 42.2586 20.4C37.6131 20.423 33.2269 21.3216 29.2122 22.8307C28.4475 21.6847 28.0396 20.3377 28.04 18.96C28.04 14.9568 31.2368 11.76 35.24 11.76ZM61.88 23.8214C61.9261 23.8099 61.9261 23.8301 61.9693 23.8214L60.8893 30.3878L60.6214 31.92L61.88 33C63.803 34.6654 65.3913 36.6818 66.56 38.9414L67.3693 40.56H71.24V52.08H67.3693L66.56 53.7014C65.1546 56.4778 62.937 58.92 60.08 60.9878L58.0093 62.52L59.2707 64.8614C59.9562 66.0192 59.8323 67.4477 58.8186 68.4614C58.5452 68.7465 58.217 68.9733 57.8537 69.1282C57.4904 69.2832 57.0996 69.3631 56.7046 69.3631C56.3097 69.3631 55.9188 69.2832 55.5556 69.1282C55.1923 68.9733 54.8641 68.7465 54.5907 68.4614L52.52 66.3878L51.3507 65.3107L49.8186 65.6707C47.48 66.2093 44.9946 66.48 42.44 66.48C39.9569 66.489 37.4807 66.2175 35.0586 65.6707L33.5322 65.3107L32.36 66.3907L30.2893 68.4586C30.0159 68.7441 29.6875 68.9712 29.324 69.1265C28.9604 69.2817 28.5692 69.3617 28.1739 69.3617C27.7786 69.3617 27.3874 69.2817 27.0239 69.1265C26.6603 68.9712 26.332 68.7441 26.0586 68.4586C25.5846 67.9996 25.2816 67.3924 25.1999 66.7377C25.1182 66.083 25.2626 65.42 25.6093 64.8586L26.8707 62.52L24.8 60.9907C19.5901 57.2064 16.52 52.0454 16.52 46.32C16.52 35.543 27.7808 26.16 42.44 26.16C45.9824 26.16 49.3578 26.6899 52.4307 27.6893L53.96 28.2307L55.2214 27.1507C57.2778 25.3162 59.8208 24.3283 61.88 23.8214ZM59.72 40.56C58.136 40.56 56.84 41.856 56.84 43.44C56.84 45.024 58.136 46.32 59.72 46.32C61.304 46.32 62.6 45.024 62.6 43.44C62.6 41.856 61.304 40.56 59.72 40.56Z" fill="#1E97EF"/>
</svg>
