<svg width="85" height="82" viewBox="0 0 85 82" fill="none" xmlns="http://www.w3.org/2000/svg">
<path d="M78.4424 32.9922H57.1924C56.8272 32.9922 56.5283 33.2805 56.5283 33.6328V37.4766C56.5283 37.8289 56.8272 38.1172 57.1924 38.1172H78.4424C78.8076 38.1172 79.1064 37.8289 79.1064 37.4766V33.6328C79.1064 33.2805 78.8076 32.9922 78.4424 32.9922ZM67.3193 43.8828H57.1924C56.8272 43.8828 56.5283 44.1711 56.5283 44.5234V48.3672C56.5283 48.7195 56.8272 49.0078 57.1924 49.0078H67.3193C67.6846 49.0078 67.9834 48.7195 67.9834 48.3672V44.5234C67.9834 44.1711 67.6846 43.8828 67.3193 43.8828ZM39.6196 25.8252H36.0254C35.5107 25.8252 35.0957 26.2256 35.0957 26.7221V46.5814C35.0957 46.8697 35.2368 47.134 35.4775 47.3022L47.8374 55.9986C48.2524 56.2869 48.8335 56.2068 49.1323 55.8064L51.2656 52.9957V52.9877C51.5645 52.5873 51.4731 52.0268 51.0581 51.7385L40.541 44.4033V26.7221C40.5493 26.2256 40.126 25.8252 39.6196 25.8252Z" fill="#1E97EF"/>
<path d="M66.8048 53.9647H62.0069C61.5421 53.9647 61.1021 54.1969 60.8531 54.5813C59.7989 56.1908 58.5704 57.6803 57.1592 59.0416C54.7271 61.3879 51.8965 63.2297 48.7505 64.511C45.4883 65.8403 42.0269 66.5129 38.4576 66.5129C34.8799 66.5129 31.4185 65.8403 28.1646 64.511C25.0186 63.2297 22.188 61.3879 19.7559 59.0416C17.3238 56.6953 15.4146 53.9647 14.0865 50.9297C12.7086 47.7907 12.0113 44.4514 12.0113 41C12.0113 37.5487 12.7086 34.2174 14.0865 31.0704C15.4146 28.0354 17.3238 25.3047 19.7559 22.9584C22.188 20.6122 25.0186 18.7704 28.1646 17.4891C31.4185 16.1598 34.8882 15.4872 38.4576 15.4872C42.0352 15.4872 45.4966 16.1598 48.7505 17.4891C51.8965 18.7704 54.7271 20.6122 57.1592 22.9584C58.5704 24.3198 59.7989 25.8092 60.8531 27.4188C61.1021 27.8032 61.5421 28.0354 62.0069 28.0354H66.8048C67.3775 28.0354 67.7427 27.4588 67.4854 26.9704C62.0733 16.5842 51.0997 9.83364 38.8477 9.69751C20.9097 9.4813 6.00982 23.6471 5.97662 40.936C5.94342 58.2569 20.4947 72.3106 38.4493 72.3106C50.859 72.3106 62.0152 65.536 67.4854 55.0297C67.7427 54.5412 67.3692 53.9647 66.8048 53.9647Z" fill="#1E97EF"/>
</svg>
