<svg width="33" height="33" viewBox="0 0 33 33" fill="none" xmlns="http://www.w3.org/2000/svg">
<path fill-rule="evenodd" clip-rule="evenodd" d="M12.8083 8.05026C13.6808 8.00914 13.9589 8 16.1813 8C18.4036 8 18.6817 8.0099 19.5534 8.05026C20.4251 8.09062 21.0201 8.23301 21.5407 8.43937C22.0859 8.6503 22.5805 8.98001 22.9895 9.40644C23.406 9.82449 23.7273 10.3301 23.9326 10.889C24.1349 11.4221 24.2733 12.0312 24.3134 12.9222C24.3536 13.8169 24.3625 14.1017 24.3625 16.3762C24.3625 18.6515 24.3528 18.9363 24.3134 19.8295C24.274 20.7204 24.1349 21.3296 23.9326 21.8626C23.7273 22.4216 23.4055 22.928 22.9895 23.3467C22.5805 23.7731 22.0859 24.1021 21.5407 24.3122C21.0201 24.5194 20.4251 24.661 19.5549 24.7021C18.6817 24.7432 18.4036 24.7524 16.1813 24.7524C13.9589 24.7524 13.6808 24.7425 12.8083 24.7021C11.9382 24.6618 11.3432 24.5194 10.8225 24.3122C10.2766 24.102 9.78189 23.7726 9.37296 23.3467C8.95675 22.9284 8.63465 22.4222 8.42914 21.8633C8.22759 21.3303 8.08925 20.7211 8.04909 19.8302C8.00892 18.9355 8 18.6507 8 16.3762C8 14.1009 8.00967 13.8161 8.04909 12.9237C8.08851 12.0312 8.22759 11.4221 8.42914 10.889C8.63496 10.3302 8.95729 9.82396 9.37371 9.40568C9.78206 8.97963 10.2762 8.64987 10.8218 8.43937C11.3424 8.23301 11.9374 8.09138 12.8076 8.05026H12.8083ZM19.4872 9.55797C18.6245 9.51761 18.3656 9.50924 16.1813 9.50924C13.9969 9.50924 13.738 9.51761 12.8753 9.55797C12.0772 9.59528 11.6444 9.73159 11.3558 9.84657C10.9743 9.99886 10.7013 10.1793 10.415 10.4725C10.1435 10.7429 9.93463 11.072 9.80359 11.4358C9.69129 11.7312 9.55816 12.1744 9.52171 12.9914C9.48229 13.8748 9.47411 14.1397 9.47411 16.3762C9.47411 18.6126 9.48229 18.8776 9.52171 19.7609C9.55816 20.578 9.69129 21.0212 9.80359 21.3166C9.93449 21.6798 10.1435 22.0096 10.415 22.2799C10.679 22.5578 11.001 22.7718 11.3558 22.9058C11.6444 23.0208 12.0772 23.1571 12.8753 23.1944C13.738 23.2348 13.9961 23.2431 16.1813 23.2431C18.3664 23.2431 18.6245 23.2348 19.4872 23.1944C20.2853 23.1571 20.7181 23.0208 21.0067 22.9058C21.3882 22.7535 21.6612 22.573 21.9475 22.2799C22.219 22.0096 22.428 21.6798 22.5589 21.3166C22.6712 21.0212 22.8043 20.578 22.8408 19.7609C22.8802 18.8776 22.8884 18.6126 22.8884 16.3762C22.8884 14.1397 22.8802 13.8748 22.8408 12.9914C22.8043 12.1744 22.6712 11.7312 22.5589 11.4358C22.4102 11.0451 22.2339 10.7657 21.9475 10.4725C21.6835 10.1946 21.362 9.98075 21.0067 9.84657C20.7181 9.73159 20.2853 9.59528 19.4872 9.55797ZM15.1363 18.9583C15.7199 19.2071 16.3697 19.2406 16.9748 19.0533C17.5799 18.866 18.1026 18.4694 18.4539 17.9313C18.8051 17.3932 18.9629 16.7469 18.9004 16.1029C18.838 15.4589 18.559 14.857 18.1113 14.4002C17.8259 14.1081 17.4807 13.8845 17.1008 13.7454C16.7208 13.6063 16.3154 13.5552 15.9139 13.5958C15.5123 13.6363 15.1245 13.7675 14.7784 13.9799C14.4323 14.1923 14.1365 14.4807 13.9123 14.8242C13.6881 15.1677 13.5411 15.5578 13.4818 15.9665C13.4226 16.3751 13.4525 16.7922 13.5696 17.1875C13.6867 17.5829 13.8879 17.9468 14.1588 18.253C14.4297 18.5592 14.7635 18.8001 15.1363 18.9583ZM13.2077 13.3318C13.5982 12.932 14.0618 12.6149 14.572 12.3985C15.0822 12.1822 15.629 12.0708 16.1813 12.0708C16.7335 12.0708 17.2803 12.1822 17.7905 12.3985C18.3007 12.6149 18.7643 12.932 19.1548 13.3318C19.5452 13.7316 19.855 14.2062 20.0663 14.7286C20.2777 15.2509 20.3864 15.8108 20.3864 16.3762C20.3864 16.9416 20.2777 17.5014 20.0663 18.0238C19.855 18.5461 19.5452 19.0208 19.1548 19.4205C18.3661 20.228 17.2965 20.6816 16.1813 20.6816C15.066 20.6816 13.9964 20.228 13.2077 19.4205C12.4191 18.6131 11.9761 17.518 11.9761 16.3762C11.9761 15.2343 12.4191 14.1392 13.2077 13.3318ZM21.3191 12.712C21.4158 12.6185 21.4933 12.5061 21.5469 12.3815C21.6005 12.2568 21.6291 12.1224 21.631 11.9863C21.633 11.8501 21.6082 11.7149 21.5582 11.5887C21.5082 11.4625 21.4339 11.3478 21.3399 11.2515C21.2458 11.1552 21.1338 11.0792 21.0106 11.028C20.8873 10.9768 20.7552 10.9514 20.6222 10.9534C20.4892 10.9554 20.358 10.9847 20.2362 11.0396C20.1144 11.0944 20.0047 11.1737 19.9134 11.2728C19.7359 11.4655 19.6387 11.7214 19.6424 11.9863C19.6462 12.2511 19.7507 12.504 19.9336 12.6913C20.1165 12.8786 20.3636 12.9855 20.6222 12.9894C20.8809 12.9932 21.1309 12.8937 21.3191 12.712Z" fill="#333333"/>
<circle cx="16.5" cy="16.5" r="16" stroke="#333333"/>
</svg>
