<svg width="33" height="33" viewBox="0 0 33 33" fill="none" xmlns="http://www.w3.org/2000/svg">
<path d="M22.4263 10.0014C22.2473 10.0147 22.0715 10.0577 21.9059 10.1288H21.9037C21.7447 10.1933 20.9889 10.5189 19.8398 11.0125L15.722 12.7885C12.7673 14.0624 9.86273 15.3168 9.86273 15.3168L9.89731 15.3031C9.89731 15.3031 9.69706 15.3705 9.48788 15.5174C9.35865 15.6016 9.24745 15.7118 9.161 15.8413C9.05836 15.9955 8.97581 16.2314 9.00649 16.4753C9.05669 16.8878 9.31775 17.1351 9.50517 17.2717C9.69483 17.4099 9.87556 17.4745 9.87556 17.4745H9.88002L12.6038 18.4142C12.726 18.8158 13.4338 21.199 13.604 21.748C13.7044 22.0759 13.802 22.281 13.9242 22.4375C13.9833 22.5175 14.0525 22.5843 14.1356 22.638C14.1788 22.6637 14.2249 22.6841 14.2728 22.6985L14.2449 22.6917C14.2533 22.694 14.26 22.7008 14.2661 22.7031C14.2884 22.7094 14.3035 22.7117 14.3319 22.7162C14.7631 22.8499 15.1095 22.5757 15.1095 22.5757L15.129 22.5597L16.7372 21.0602L19.4326 23.1778L19.4939 23.2047C20.0556 23.4572 20.6246 23.3166 20.9253 23.0687C21.2282 22.8191 21.3459 22.4997 21.3459 22.4997L21.3654 22.4483L23.4483 11.5209C23.5074 11.2513 23.5224 10.9988 23.4572 10.7537C23.3899 10.5057 23.2345 10.2924 23.0215 10.1556C22.8427 10.0443 22.6353 9.99054 22.4263 10.0014ZM22.37 11.1724C22.3678 11.2084 22.3745 11.2044 22.3588 11.2735V11.2798L20.2955 22.0936C20.2866 22.109 20.2715 22.1427 20.2302 22.1764C20.1867 22.2118 20.1521 22.2341 19.9708 22.1604L16.6742 19.5721L14.6828 21.4309L15.1011 18.6946L20.4874 13.5534C20.7094 13.342 20.6352 13.2975 20.6352 13.2975C20.6508 13.0381 20.3 13.2215 20.3 13.2215L13.508 17.5304L13.5058 17.519L10.2504 16.3965V16.3942L10.242 16.3925C10.2477 16.3906 10.2533 16.3883 10.2588 16.3857L10.2766 16.3765L10.2939 16.3702C10.2939 16.3702 13.2007 15.1158 16.1554 13.8419C17.6347 13.2038 19.1252 12.5611 20.2715 12.0653C21.4178 11.5723 22.2651 11.2107 22.3131 11.1913C22.3588 11.173 22.3371 11.173 22.37 11.173V11.1724Z" fill="#333333"/>
<circle cx="16.5" cy="16.5" r="16" stroke="#333333"/>
</svg>
