<svg width="33" height="33" viewBox="0 0 33 33" fill="none" xmlns="http://www.w3.org/2000/svg">
<path fill-rule="evenodd" clip-rule="evenodd" d="M21.0147 17.9543C20.792 17.8408 19.7002 17.2939 19.4969 17.2178C19.2936 17.1424 19.1457 17.105 18.9969 17.332C18.849 17.5575 18.4237 18.0678 18.2945 18.2186C18.1644 18.3702 18.0351 18.3885 17.8132 18.2757C17.5912 18.1615 16.8753 17.9231 16.0271 17.1523C15.3672 16.5521 14.921 15.811 14.7917 15.584C14.6624 15.3578 14.7775 15.2352 14.8889 15.1224C14.989 15.0211 15.1108 14.8581 15.2222 14.7264C15.3335 14.5938 15.3702 14.4994 15.4441 14.3478C15.5189 14.197 15.4815 14.0652 15.4255 13.9518C15.3702 13.8383 14.9262 12.7239 14.7409 12.2708C14.5608 11.8298 14.3777 11.8899 14.2417 11.8823C14.1117 11.8762 13.9637 11.8747 13.8157 11.8747C13.6677 11.8747 13.4271 11.9311 13.2238 12.158C13.0198 12.3842 12.4466 12.9319 12.4466 14.0462C12.4466 15.1598 13.2418 16.236 13.3531 16.3876C13.4645 16.5384 14.9188 18.8249 17.1466 19.8052C17.6772 20.0382 18.0904 20.1776 18.4125 20.2812C18.9446 20.4541 19.4289 20.4297 19.8115 20.3711C20.2375 20.3063 21.1253 19.8234 21.3107 19.2948C21.4953 18.7662 21.4953 18.313 21.44 18.2186C21.3847 18.1242 21.2367 18.0678 21.014 17.9543H21.0147ZM16.9627 23.5929H16.9597C15.6365 23.5932 14.3376 23.2306 13.1992 22.5433L12.9301 22.3803L10.1336 23.1283L10.8802 20.3497L10.7046 20.0649C9.96483 18.8648 9.57335 17.4758 9.57537 16.0585C9.57686 11.9074 12.8905 8.53022 16.9657 8.53022C18.9387 8.53022 20.7935 9.31473 22.188 10.7375C22.8759 11.4357 23.421 12.2659 23.792 13.1801C24.163 14.0944 24.3524 15.0745 24.3493 16.0638C24.3478 20.2149 21.0342 23.5929 16.9627 23.5929ZM23.2493 9.65672C22.4258 8.81197 21.4461 8.14218 20.3669 7.68614C19.2876 7.2301 18.1303 6.9969 16.962 7.00003C12.064 7.00003 8.07623 11.0635 8.07473 16.0578C8.07399 17.6542 8.48277 19.2126 9.26074 20.5859L8 25.28L12.7112 24.0202C14.0144 24.7439 15.4749 25.1231 16.959 25.1231H16.9627C21.8607 25.1231 25.8485 21.0596 25.85 16.0646C25.8536 14.8743 25.6256 13.6951 25.1792 12.5953C24.7328 11.4954 24.0768 10.4966 23.2493 9.65672Z" fill="#333333"/>
<circle cx="16.5" cy="16.5" r="16" stroke="#333333"/>
</svg>
